<svg width="903" height="908" viewBox="0 0 903 908" fill="none" xmlns="http://www.w3.org/2000/svg">
<g clip-path="url(#clip0_3_11)">
<path d="M393.81 434.32C391.22 432.58 388.71 430.7 386.01 429.14C324.2 393.48 262.27 358.03 200.61 322.12C180.34 310.32 160.03 308.42 138.1 316.82C104.1 329.82 66.59 311.58 55.1 276.96C52.4348 268.853 51.4223 260.294 52.1223 251.789C52.8223 243.284 55.2207 235.006 59.1756 227.444C63.1305 219.882 68.5615 213.19 75.1476 207.763C81.7337 202.336 89.3412 198.286 97.52 195.85C105.78 193.404 114.447 192.638 123.008 193.598C131.569 194.558 139.851 197.224 147.365 201.438C154.879 205.653 161.471 211.33 166.754 218.136C172.036 224.941 175.901 232.736 178.12 241.06C181.23 252.68 184.46 264.67 190.22 275.06C194.46 282.72 201.96 289.72 209.64 294.25C274.02 332.04 338.81 369.18 403.44 406.49C405.02 407.4 406.79 407.98 411.2 409.92C407.6 403.35 405.39 399.14 403.01 395.02C369.81 337.51 335.98 280.33 303.57 222.36C289.73 197.61 271.91 181.92 242.81 177.27C212.56 172.42 191.73 142.07 193.49 110.76C195.15 81.24 220.39 54.87 249.84 51.88C282.23 48.6 310.93 67.88 319.39 98.49C322.95 111.34 322.62 123.97 317.85 136.36C309.11 159.15 311.37 180.43 323.81 201.65C359.81 262.89 395.02 324.54 430.57 386.01C431.97 388.42 433.75 390.61 436.86 395.07C437.16 389.27 437.46 386.14 437.46 383.01C437.46 311.55 437.32 240.08 437.54 168.61C437.61 145.87 429 127.76 411.45 113.49C388.91 95.14 381.39 65.88 392.07 39.24C402.6 12.98 427.39 -1.76001 457.94 0.159991C483.64 1.74999 507.08 21.35 513.2 48.16C518.84 72.92 512.75 95.16 492.86 111.69C473.61 127.69 465.09 147.61 465.2 172.37C465.52 241.85 465.31 311.37 465.3 380.82V392.37L467.43 393.1C468.95 390.92 470.63 388.84 471.96 386.55C508.7 323.05 545.393 259.527 582.04 195.98C592.77 177.33 592.92 157.98 585.23 137.98C571.92 103.21 591.36 64.23 626.42 54.08C663.21 43.43 700.21 65.83 707.72 103.3C714.81 138.72 690.3 172.91 654.4 178.42C634.53 181.48 618.02 191.05 607.74 208.69C569.96 273.46 532.58 338.46 495.08 403.4C494.32 404.71 493.89 406.21 492.17 410.4C497.47 407.48 500.48 405.88 503.43 404.18C564.69 368.81 625.81 333.31 687.26 298.25C708.26 286.25 720.36 269.3 723.83 245.08C728.2 214.61 757.94 191.72 789.36 193.08C821.93 194.47 847.59 219.44 850.28 252.37C852.83 283.61 831.54 312.46 801.49 319.26C787.73 322.38 774.69 320.94 761.73 315.95C743.09 308.77 724.66 309.52 707.33 319.45C643.13 356.197 579.033 393.137 515.04 430.27C513.11 431.38 511.4 432.88 507.12 435.99C513.12 436.32 516.43 436.67 519.75 436.68C590.89 436.68 662.027 436.68 733.16 436.68C755.63 436.68 774.1 428.56 788.51 410.85C807.12 387.99 836.51 380.55 862.65 391.32C887.75 401.72 904.52 427.72 902.47 453.11C900.04 483.35 881.09 506.79 853.13 512.72C827.3 518.2 805.28 510.72 788.42 490.2C774.24 472.91 756.26 464.59 734.05 464.6C545.13 464.6 356.207 464.6 167.28 464.6C144.99 464.6 127.4 473.9 113.28 491.02C96.83 510.95 75.07 518.15 50.2 512.8C25.62 507.52 9.51997 491.8 2.47997 467.45C-5.69003 439.2 6.96995 409.23 33.0199 394.63C58.1799 380.52 91.63 384.53 110.02 406.8C128.81 429.72 151.9 437.38 180.58 436.98C247.73 436.05 314.91 436.72 382.07 436.72H392.89L393.81 434.32Z" fill="#008D36"/>
<path d="M541.18 728.04C542.59 727.65 544.11 727.26 545.62 726.82C563.62 721.69 576.46 728.01 581.62 744.57C586.78 761.13 578.74 777.15 562.71 782.79C542.03 790.06 517.08 782.39 504.33 764.51C476.81 725.93 494.81 666.72 547.61 661.33C560.85 659.98 574.35 661.13 587.23 661.13C588.99 647.58 589.09 631.84 593.29 617.28C603.29 582.55 623.29 556.28 661.36 549C699.7 541.63 735.46 563.85 745.36 601C750.57 620.5 740.93 642.67 722.94 652.57C704.28 662.83 681.67 659.57 668.47 644.65C656.86 631.55 656.95 614.56 668.91 601.8C671.55 598.98 674.8 596.73 678 594.02C664.55 585.19 649.72 588.2 641.19 601.69C626.28 625.27 627.7 650.38 638.4 674.69C650.1 701.3 671.25 714.5 700.91 715.18C763.39 716.6 808.4 674.85 811.04 608.18C811.6 594.18 811.12 580.04 811.12 567.36C837.12 590.17 852.4 643.84 833.2 689.08C808.83 746.54 750.94 770.64 667.98 756.64C667.583 758.109 667.359 759.619 667.31 761.14C670.8 804.26 650.31 835.37 617.15 859.59C580.45 886.41 538.1 898.64 493.72 904.08C438.91 910.72 384.88 907.2 332.81 887.17C296.73 873.3 265.81 852.79 247.04 817.53C238.68 801.81 234.04 785.11 235.04 767.09C235.22 763.84 235.04 760.56 235.04 758.36C216.14 759.56 197.85 762.01 179.62 761.62C118.81 760.33 70.86 717.72 61.5 657.77C56.71 627.1 71.83 583.67 94.7 563.42C89.85 590.77 89.6 617.5 97.88 643.76C116.37 702.43 172.44 722.86 220.18 712.76C247.25 707.05 267.52 681.76 270.94 654.28C273.06 637.18 272.57 620.62 264.19 605.19C255.81 589.76 240.36 584.74 225.46 592.9C226.582 594.443 227.837 595.886 229.21 597.21C240.91 606.72 245.57 618.72 241.11 633.35C237.11 646.52 221.8 657.35 207.03 658.35C172.41 660.76 148.09 628.98 159.03 595.59C173.81 550.49 231.21 532.77 272.06 561.42C298.72 580.11 310.69 607.49 313.58 639.18C314.29 646.97 313.69 654.89 313.69 661.34C328.89 661.34 343.04 660.11 356.89 661.61C380.41 664.16 397.89 676.9 406.33 699.16C415.33 722.92 412.94 746.31 396.82 766.63C383.41 783.54 364.96 788.4 344.25 783.72C325.57 779.44 316.25 763.72 320.81 745.36C324.88 728.72 339.2 721.72 358.29 727.12C359.53 727.47 360.79 727.72 362.77 728.19C365.62 718.69 365.92 709.79 359.33 702.19C351.75 693.39 341.44 691.14 330.47 693.06C301.22 698.14 280.32 721.72 275.81 753.16C270.18 792.57 286.01 821.25 319.11 841.47C343.75 856.47 370.94 864.64 399.23 868.56C451.23 875.76 502.71 873.78 552.6 855.56C576.19 846.95 597.71 834.86 613.16 814.22C640.21 778.07 630.31 721.9 592.95 700.22C581.2 693.39 568.58 690.12 554.95 694.41C540.63 698.92 534.21 714.05 541.18 728.04Z" fill="#008D36"/>
<path d="M451.41 501.29C464 555.11 496.12 586.92 549.1 598.05C494.46 609.14 462.29 645.33 451.53 694.41C438.75 641.41 407.15 609.56 354.13 598.19C406.99 586.5 439.2 554.89 451.41 501.29Z" fill="#008D36"/>
</g>
<defs>
<clipPath id="clip0_3_11">
<rect width="902.63" height="907.12" fill="white"/>
</clipPath>
</defs>
</svg>
